<?xml version="1.0" standalone="no"?>
<!DOCTYPE svg PUBLIC "-//W3C//DTD SVG 20010904//EN"
 "http://www.w3.org/TR/2001/REC-SVG-20010904/DTD/svg10.dtd">
<svg version="1.0" xmlns="http://www.w3.org/2000/svg"
 width="212.000000pt" height="200.000000pt" viewBox="0 0 212.000000 200.000000"
 preserveAspectRatio="xMidYMid meet">

<g transform="translate(0.000000,200.000000) scale(0.100000,-0.100000)"
fill="#000000" stroke="none">
<path d="M869 1437 c-103 -29 -181 -97 -228 -197 -34 -74 -36 -191 -3 -264
l22 -48 -22 -74 c-11 -41 -19 -76 -17 -79 3 -2 39 5 81 15 70 18 79 19 113 4
21 -8 57 -19 79 -23 36 -6 44 -12 64 -51 32 -61 77 -107 137 -138 63 -33 179
-37 234 -8 33 17 37 17 98 1 35 -10 66 -15 69 -12 3 2 -2 33 -11 68 -16 59
-15 65 2 103 12 27 18 63 17 111 -1 112 -58 202 -164 257 -39 20 -45 28 -52
65 -25 151 -155 267 -310 278 -36 3 -82 -1 -109 -8z m204 -65 c58 -26 123 -91
149 -150 29 -68 28 -172 -3 -237 -68 -144 -232 -207 -383 -146 -51 21 -62 22
-98 12 -22 -7 -42 -10 -45 -7 -3 3 0 25 6 48 11 38 10 48 -11 93 -47 103 -23
242 55 323 83 87 219 113 330 64z m256 -317 c16 -8 47 -35 69 -60 64 -72 78
-175 36 -257 -11 -21 -13 -42 -9 -70 l7 -40 -40 7 c-28 4 -49 2 -70 -9 -82
-42 -185 -28 -257 36 -25 22 -52 53 -61 69 -14 28 -14 30 11 39 15 6 31 10 36
10 23 0 107 51 142 87 44 43 82 112 92 166 8 42 7 42 44 22z"/>
<path d="M884 1256 c-19 -19 -34 -41 -34 -50 0 -25 40 -19 62 9 24 31 62 32
82 3 23 -33 20 -44 -24 -92 -48 -52 -55 -96 -15 -96 17 0 25 5 25 18 0 10 13
31 30 47 59 57 61 130 2 175 -39 32 -88 26 -128 -14z"/>
<path d="M930 945 c0 -20 5 -25 25 -25 20 0 25 5 25 25 0 20 -5 25 -25 25 -20
0 -25 -5 -25 -25z"/>
</g>
</svg>
