<?xml version="1.0" standalone="no"?>
<!DOCTYPE svg PUBLIC "-//W3C//DTD SVG 20010904//EN"
 "http://www.w3.org/TR/2001/REC-SVG-20010904/DTD/svg10.dtd">
<svg version="1.0" xmlns="http://www.w3.org/2000/svg"
 width="212.000000pt" height="200.000000pt" viewBox="0 0 212.000000 200.000000"
 preserveAspectRatio="xMidYMid meet">

<g transform="translate(0.000000,200.000000) scale(0.100000,-0.100000)"
fill="#000000" stroke="none">
<path d="M991 1445 c-29 -17 -58 -25 -90 -25 -58 0 -106 -28 -128 -76 -11 -22
-32 -43 -56 -55 -50 -26 -77 -72 -77 -132 0 -35 -7 -58 -22 -80 -31 -43 -31
-111 0 -154 15 -22 22 -45 22 -80 0 -60 27 -106 77 -132 24 -12 45 -33 56 -55
22 -48 70 -76 128 -76 32 0 61 -8 90 -25 55 -31 83 -31 138 0 29 17 58 25 90
25 58 0 106 28 128 76 11 22 32 43 56 55 50 26 77 72 77 130 0 31 8 62 26 93
30 54 29 97 -5 145 -14 20 -21 45 -21 78 0 60 -27 106 -77 132 -24 12 -45 33
-56 55 -22 48 -70 76 -128 76 -32 0 -61 8 -90 25 -24 14 -55 25 -69 25 -14 0
-45 -11 -69 -25z m133 -56 c20 -12 50 -19 84 -19 56 0 73 -11 104 -69 10 -17
32 -39 49 -49 58 -31 69 -48 69 -102 0 -35 8 -66 26 -100 l26 -50 -26 -50
c-18 -34 -26 -65 -26 -100 0 -54 -11 -71 -69 -102 -17 -10 -39 -32 -49 -49
-31 -58 -48 -69 -102 -69 -35 0 -66 -8 -100 -26 l-50 -26 -50 26 c-34 18 -65
26 -100 26 -54 0 -71 11 -102 69 -10 17 -32 39 -49 49 -58 31 -69 48 -69 102
0 35 -8 66 -26 100 l-26 50 26 50 c18 34 26 65 26 100 0 54 11 71 69 102 17
10 39 32 49 49 31 58 48 69 102 69 35 0 66 8 98 25 49 26 64 26 116 -6z"/>
<path d="M882 1147 c-20 -21 -22 -34 -22 -148 0 -118 1 -127 23 -147 23 -22
68 -29 102 -16 32 13 45 59 45 164 0 105 -13 151 -45 164 -36 13 -82 6 -103
-17z m88 -46 c5 -11 10 -57 10 -103 0 -91 -13 -123 -46 -116 -17 3 -19 14 -22
107 -1 58 0 111 2 118 8 20 44 16 56 -6z"/>
<path d="M1087 1164 c-10 -10 -9 -62 2 -68 21 -14 42 7 39 38 -3 29 -25 46
-41 30z"/>
<path d="M1141 1013 c-34 -86 -59 -163 -56 -170 2 -8 13 -13 22 -11 13 2 37
50 81 161 34 87 60 162 57 167 -4 6 -14 10 -24 10 -14 0 -32 -35 -80 -157z"/>
<path d="M1207 903 c-4 -3 -7 -22 -7 -40 0 -30 3 -34 23 -31 25 3 35 41 17 64
-14 15 -23 18 -33 7z"/>
</g>
</svg>
