<?xml version="1.0" standalone="no"?>
<!DOCTYPE svg PUBLIC "-//W3C//DTD SVG 20010904//EN"
 "http://www.w3.org/TR/2001/REC-SVG-20010904/DTD/svg10.dtd">
<svg version="1.0" xmlns="http://www.w3.org/2000/svg"
 width="212.000000pt" height="200.000000pt" viewBox="0 0 212.000000 200.000000"
 preserveAspectRatio="xMidYMid meet">

<g transform="translate(0.000000,200.000000) scale(0.100000,-0.100000)"
fill="#000000" stroke="none">
<path d="M979 1471 c-12 -17 -35 -35 -50 -42 -42 -17 -96 -81 -110 -131 -7
-24 -22 -49 -32 -57 -14 -10 -17 -21 -13 -45 8 -39 8 -43 0 -84 -5 -26 -2 -38
17 -58 12 -13 31 -24 40 -24 11 0 26 -14 35 -32 9 -18 28 -47 41 -65 38 -50
29 -67 -43 -74 -77 -7 -136 -40 -174 -97 -33 -50 -43 -98 -38 -192 l3 -65 405
0 405 0 0 100 c0 91 -2 104 -28 147 -36 62 -99 99 -181 107 -52 5 -61 9 -64
26 -2 12 7 32 19 45 11 14 30 42 40 63 12 22 27 37 37 37 10 0 29 11 41 24 19
20 22 32 17 58 -8 41 -8 45 0 84 4 24 1 35 -13 45 -10 8 -25 33 -32 57 -14 50
-68 114 -110 131 -15 7 -38 25 -50 42 -20 26 -27 29 -81 29 -54 0 -61 -3 -81
-29z m139 -86 c2 -38 7 -74 13 -80 15 -15 29 13 29 58 0 20 4 37 9 37 16 0 71
-51 86 -81 32 -60 35 -59 -195 -59 -230 0 -227 -1 -195 59 15 30 70 81 86 81
5 0 9 -17 9 -37 0 -21 4 -44 9 -52 18 -28 31 1 31 68 0 37 3 71 7 75 4 4 30 6
58 4 l50 -3 3 -70z m192 -185 c0 -19 -7 -20 -250 -20 -243 0 -250 1 -250 20 0
19 7 20 250 20 243 0 250 -1 250 -20z m-460 -93 c0 -40 -8 -51 -27 -36 -14 12
-18 51 -6 62 17 18 33 5 33 -26z m390 -9 c-1 -86 -71 -180 -145 -194 -109 -20
-199 57 -212 181 l-6 55 182 0 181 0 0 -42z m65 7 c0 -20 -6 -31 -17 -33 -15
-3 -18 4 -18 33 0 29 3 36 18 33 11 -2 17 -13 17 -33z m-245 -235 c27 0 60 4
74 10 44 16 32 -22 -24 -82 l-50 -53 -50 54 c-56 62 -67 97 -24 81 14 -6 47
-10 74 -10z m-75 -97 l55 -58 0 -87 0 -88 -80 0 -80 0 0 30 c0 20 -5 30 -15
30 -10 0 -15 -10 -15 -30 0 -25 -4 -30 -25 -30 l-26 0 3 138 c3 134 4 137 26
140 21 3 22 0 22 -62 0 -52 3 -66 15 -66 12 0 15 14 15 63 0 35 3 67 7 70 17
18 49 2 98 -50z m253 -15 c2 -52 6 -68 17 -68 12 0 15 15 15 66 0 62 1 65 23
62 21 -3 22 -6 25 -140 l3 -138 -26 0 c-21 0 -25 5 -25 30 0 20 -5 30 -15 30
-10 0 -15 -10 -15 -30 l0 -30 -80 0 -80 0 0 88 0 87 56 58 c40 42 61 57 77 55
20 -3 22 -10 25 -70z m-468 -93 l0 -125 -40 0 -40 0 0 70 c0 39 6 85 14 103
13 29 50 77 61 77 3 0 5 -56 5 -125z m639 62 c15 -32 21 -63 21 -115 l0 -72
-40 0 -40 0 0 125 c0 120 1 125 19 116 10 -6 28 -30 40 -54z"/>
<path d="M850 645 c0 -8 7 -15 15 -15 8 0 15 7 15 15 0 8 -7 15 -15 15 -8 0
-15 -7 -15 -15z"/>
<path d="M1240 645 c0 -8 7 -15 15 -15 8 0 15 7 15 15 0 8 -7 15 -15 15 -8 0
-15 -7 -15 -15z"/>
</g>
</svg>
