<?xml version="1.0" standalone="no"?>
<!DOCTYPE svg PUBLIC "-//W3C//DTD SVG 20010904//EN"
 "http://www.w3.org/TR/2001/REC-SVG-20010904/DTD/svg10.dtd">
<svg version="1.0" xmlns="http://www.w3.org/2000/svg"
 width="212.000000pt" height="200.000000pt" viewBox="0 0 212.000000 200.000000"
 preserveAspectRatio="xMidYMid meet">

<g transform="translate(0.000000,200.000000) scale(0.100000,-0.100000)"
fill="#000000" stroke="none">
<path d="M982 1458 c-7 -7 -12 -21 -12 -32 0 -47 -11 -62 -60 -79 -120 -43
-220 -90 -233 -111 -8 -12 -31 -115 -51 -230 -50 -283 -52 -279 160 -316 146
-25 164 -32 164 -64 0 -31 42 -82 75 -90 26 -7 399 56 446 75 14 5 33 24 43
41 18 30 18 34 -30 307 -43 245 -52 279 -74 302 -15 16 -76 47 -147 75 -117
47 -123 51 -129 81 -13 70 -60 68 -50 -2 5 -38 2 -45 -19 -59 -39 -26 -52 -12
-51 51 1 56 -10 73 -32 51z m270 -173 c61 -25 117 -50 123 -55 7 -6 15 -29 19
-53 3 -23 23 -141 45 -262 45 -249 44 -257 -26 -269 -21 -3 -112 -19 -203 -35
-147 -26 -167 -28 -187 -15 -13 8 -23 24 -23 35 0 18 4 20 44 14 53 -8 99 14
115 54 16 39 71 364 71 415 0 42 -3 47 -76 114 -69 64 -74 71 -59 86 23 23 32
21 157 -29z m-307 -4 c-3 -11 1 -24 11 -32 14 -11 18 -11 30 5 7 10 15 24 17
30 2 6 43 -25 90 -68 65 -60 87 -86 87 -104 0 -14 -14 -107 -31 -206 -22 -125
-37 -187 -49 -199 -16 -18 -24 -17 -221 18 -217 38 -245 50 -234 99 3 11 19
100 35 196 18 102 37 181 45 190 15 15 190 89 213 89 9 1 11 -6 7 -18z"/>
<path d="M930 1174 c0 -8 -14 -20 -30 -26 -30 -10 -60 -52 -60 -83 0 -10 13
-29 30 -45 l29 -27 -11 -62 c-10 -53 -14 -61 -30 -57 -10 3 -27 9 -38 12 -35
11 -23 -22 15 -40 23 -11 35 -23 33 -34 -2 -9 5 -18 15 -20 10 -2 17 3 17 12
0 9 15 22 34 30 71 29 86 93 35 151 -28 32 -31 39 -25 80 7 43 26 59 41 35 9
-15 25 -12 25 4 0 8 -11 23 -25 34 -14 11 -25 27 -25 36 0 9 -7 16 -15 16 -8
0 -15 -7 -15 -16z m-15 -91 c-8 -44 -10 -47 -24 -38 -15 8 -14 48 1 63 22 22
30 13 23 -25z m45 -132 c15 -29 12 -45 -10 -69 -33 -35 -42 -28 -34 26 3 26 8
50 11 55 7 13 22 8 33 -12z"/>
</g>
</svg>
