<?xml version="1.0" standalone="no"?>
<!DOCTYPE svg PUBLIC "-//W3C//DTD SVG 20010904//EN"
 "http://www.w3.org/TR/2001/REC-SVG-20010904/DTD/svg10.dtd">
<svg version="1.0" xmlns="http://www.w3.org/2000/svg"
 width="212.000000pt" height="200.000000pt" viewBox="0 0 212.000000 200.000000"
 preserveAspectRatio="xMidYMid meet">

<g transform="translate(0.000000,200.000000) scale(0.100000,-0.100000)"
fill="#000000" stroke="none">
<path d="M785 1384 c-22 -8 -55 -29 -73 -47 -92 -88 -105 -215 -33 -322 25
-37 26 -42 13 -68 -18 -37 -5 -76 35 -102 16 -11 34 -33 39 -50 6 -20 21 -36
47 -48 20 -10 37 -25 37 -32 0 -18 48 -55 72 -55 11 0 33 -13 48 -30 51 -54
134 -31 166 47 8 18 20 33 27 33 16 0 57 42 57 58 0 6 12 17 27 24 15 7 37 27
48 44 11 17 32 38 47 47 15 9 35 31 45 50 10 19 33 56 51 81 74 104 64 228
-27 316 -87 85 -211 94 -313 24 l-38 -27 -38 27 c-69 48 -158 59 -237 30z
m162 -49 c21 -9 45 -23 55 -32 18 -16 17 -18 -14 -50 l-33 -34 48 -46 c48 -45
49 -46 107 -40 l58 5 88 -89 c74 -74 87 -92 78 -106 -19 -31 -34 -25 -104 43
-66 63 -72 67 -87 51 -16 -15 -12 -21 50 -86 70 -73 74 -80 55 -99 -21 -21
-36 -14 -106 53 -66 61 -70 64 -85 47 -16 -17 -12 -22 48 -82 64 -64 79 -95
50 -106 -8 -4 -30 1 -49 10 -19 9 -41 16 -49 16 -9 0 -29 14 -45 30 -17 17
-37 30 -45 30 -8 0 -18 12 -21 26 -4 14 -20 33 -36 42 -17 9 -30 22 -30 29 0
6 -12 26 -26 43 -22 25 -34 31 -63 30 -55 -3 -56 -2 -78 38 -30 53 -36 94 -23
144 31 117 150 178 257 133z m380 -6 c110 -53 145 -199 68 -286 l-24 -28 -98
98 c-54 53 -103 97 -109 97 -7 0 -17 -7 -24 -15 -16 -20 -60 -19 -89 1 l-23
16 49 50 c83 87 165 108 250 67z m-509 -391 c2 -19 -3 -31 -21 -43 -47 -30
-78 15 -40 57 24 27 57 19 61 -14z m76 -80 c9 -14 6 -23 -16 -44 -45 -46 -91
-5 -47 42 26 27 46 28 63 2z m85 -77 c14 -26 -22 -73 -53 -69 -31 4 -34 51 -4
72 30 21 45 20 57 -3z m105 -63 c9 -14 6 -23 -16 -44 -45 -46 -91 -5 -47 42
26 27 46 28 63 2z"/>
</g>
</svg>
