<?xml version="1.0" standalone="no"?>
<!DOCTYPE svg PUBLIC "-//W3C//DTD SVG 20010904//EN"
 "http://www.w3.org/TR/2001/REC-SVG-20010904/DTD/svg10.dtd">
<svg version="1.0" xmlns="http://www.w3.org/2000/svg"
 width="212.000000pt" height="200.000000pt" viewBox="0 0 212.000000 200.000000"
 preserveAspectRatio="xMidYMid meet">

<g transform="translate(0.000000,200.000000) scale(0.100000,-0.100000)"
fill="#000000" stroke="none">
<path d="M973 1410 c-113 -23 -238 -121 -289 -227 -120 -255 34 -549 312 -595
274 -46 522 202 476 476 -39 236 -264 392 -499 346z m239 -72 c79 -37 142 -98
181 -177 30 -61 32 -73 32 -166 0 -95 -2 -103 -34 -163 -40 -73 -98 -130 -173
-169 -47 -24 -63 -27 -153 -28 -88 0 -107 3 -157 27 -79 37 -142 98 -181 177
-29 60 -32 74 -32 161 0 82 4 103 26 151 47 99 128 171 232 205 68 22 191 14
259 -18z"/>
<path d="M985 1311 c-92 -24 -173 -90 -215 -176 -33 -69 -34 -199 -2 -265 35
-71 75 -114 144 -151 58 -31 70 -34 148 -33 69 0 94 5 135 24 64 31 124 91
155 155 34 72 34 198 0 270 -31 64 -92 124 -154 153 -53 25 -160 37 -211 23z
m185 -62 c101 -45 160 -138 160 -249 -1 -156 -115 -270 -270 -270 -155 0 -269
114 -270 270 0 155 114 270 270 270 44 0 80 -7 110 -21z"/>
<path d="M1003 1153 c-23 -15 -50 -41 -59 -59 -12 -22 -27 -34 -44 -36 -31 -4
-33 -29 -2 -43 24 -11 30 -25 9 -25 -7 0 -18 -5 -25 -12 -15 -15 3 -38 32 -38
13 -1 29 -13 41 -33 23 -36 95 -77 137 -77 41 0 98 26 98 45 0 14 -9 15 -60 9
-66 -7 -114 6 -131 37 -9 18 -5 19 50 19 41 0 60 4 64 14 10 24 -16 36 -80 36
-35 0 -63 4 -63 10 0 6 28 10 64 10 43 0 67 5 76 15 20 25 1 35 -66 35 -35 0
-64 4 -64 9 0 16 59 59 90 66 16 4 46 1 65 -5 55 -18 80 15 30 38 -46 21 -117
15 -162 -15z"/>
</g>
</svg>
